<svg width="60" height="12" viewBox="0 0 60 12" fill="none" xmlns="http://www.w3.org/2000/svg">
<g clip-path="url(#clip0_1565_897)">
<path d="M58.9128 5.04498L57.8037 7.90846H57.7704L56.6133 5.04498H55.5672L57.301 9.04787L56.3103 11.2743H57.3269L59.9997 5.04498H58.9128ZM51.0755 2.66874H50.107V9.27278H51.0755V2.66874ZM47.4304 2.66874H45.1014V9.27278H46.0773V6.77286H47.434C47.7076 6.78235 47.9802 6.73665 48.2362 6.63842C48.4922 6.54019 48.7264 6.39139 48.9252 6.20065C49.124 6.00991 49.2834 5.78104 49.3942 5.52731C49.5051 5.27359 49.5651 5.00007 49.5708 4.72264C49.5651 4.44471 49.505 4.17071 49.394 3.91652C49.283 3.66234 49.1233 3.43304 48.9241 3.24195C48.725 3.05086 48.4904 2.90177 48.234 2.80335C47.9776 2.70493 47.7044 2.65925 47.4304 2.66874ZM47.4562 5.85064H46.0773V3.60189H47.4599C47.7541 3.60189 48.0362 3.72036 48.2441 3.93123C48.4521 4.1421 48.569 4.4281 48.569 4.72632C48.569 5.02454 48.4521 5.31055 48.2441 5.52142C48.0362 5.73229 47.7541 5.85076 47.4599 5.85076L47.4562 5.85064ZM53.4637 4.9024C53.1089 4.88169 52.7558 4.9664 52.4478 5.14614C52.1398 5.32589 51.8903 5.59287 51.7298 5.91432L52.5948 6.28918C52.6805 6.13021 52.8102 6.00011 52.9678 5.91487C53.1255 5.82963 53.3043 5.79297 53.4822 5.80941C53.6043 5.79702 53.7277 5.80923 53.8452 5.84533C53.9627 5.88144 54.0719 5.94073 54.1668 6.01979C54.2616 6.09885 54.34 6.19614 54.3976 6.30604C54.4552 6.41595 54.4908 6.53632 54.5024 6.66023V6.72771C54.1924 6.55784 53.8456 6.46894 53.4932 6.46906C52.5653 6.46906 51.6189 6.98636 51.6189 7.96834C51.6189 8.8529 52.3768 9.4226 53.2345 9.4226C53.4785 9.43825 53.7222 9.38657 53.9396 9.27306C54.157 9.15954 54.34 8.98844 54.4691 8.77793H54.5062V9.28763H55.4526V6.7466C55.4526 5.57345 54.5875 4.92129 53.4709 4.92129L53.4637 4.9024ZM53.3491 8.52308C53.0311 8.52308 52.5875 8.35817 52.5875 7.96086C52.5875 7.45116 53.1382 7.2563 53.6189 7.2563C53.9289 7.24775 54.2354 7.32415 54.5061 7.47729C54.4704 7.76394 54.3336 8.02781 54.1209 8.22007C53.9082 8.41233 53.634 8.51997 53.3491 8.52308ZM18.2955 9.41512C16.3811 9.42153 14.8175 7.86628 14.7871 5.92561C14.8176 3.98494 16.3811 2.42969 18.2955 2.43611C18.7338 2.42867 19.1692 2.51004 19.5761 2.67546C19.983 2.84089 20.3533 3.08702 20.6651 3.39943L19.996 4.07036C19.5421 3.61952 18.9308 3.36891 18.2955 3.37318C16.9132 3.37318 15.7927 4.50925 15.7927 5.91064C15.7927 7.31203 16.9132 8.44811 18.2955 8.44811C18.6185 8.46151 18.9407 8.40605 19.2413 8.2853C19.5419 8.16456 19.8141 7.98121 20.0404 7.74712C20.3412 7.41823 20.5225 6.9952 20.5543 6.54783H18.2955V5.62217H21.4748C21.5095 5.8188 21.5255 6.01828 21.5228 6.21813C21.5548 7.04784 21.261 7.85657 20.7058 8.467C20.3923 8.78793 20.0157 9.03825 19.6003 9.20162C19.185 9.36499 18.7404 9.43774 18.2955 9.41512ZM26.4396 7.16625C26.4519 7.46611 26.4042 7.76539 26.2994 8.04609C26.1947 8.32679 26.035 8.58312 25.8301 8.79968C25.6251 9.01624 25.3791 9.18855 25.1068 9.30626C24.8345 9.42397 24.5416 9.48465 24.2455 9.48465C23.9495 9.48465 23.6566 9.42397 23.3843 9.30626C23.112 9.18855 22.866 9.01624 22.661 8.79968C22.4561 8.58312 22.2964 8.32679 22.1917 8.04609C22.0869 7.76539 22.0392 7.46611 22.0514 7.16625C22.0392 6.86638 22.0869 6.5671 22.1917 6.2864C22.2964 6.0057 22.4561 5.74937 22.661 5.53281C22.866 5.31625 23.112 5.14394 23.3843 5.02623C23.6566 4.90852 23.9495 4.84784 24.2455 4.84784C24.5416 4.84784 24.8345 4.90852 25.1068 5.02623C25.3791 5.14394 25.6251 5.31625 25.8301 5.53281C26.035 5.74937 26.1947 6.0057 26.2994 6.2864C26.4042 6.5671 26.4519 6.86638 26.4396 7.16625ZM25.4785 7.16625C25.4947 6.99216 25.4749 6.81656 25.4204 6.65068C25.3658 6.4848 25.2776 6.33231 25.1616 6.20297C25.0455 6.07363 24.9041 5.97029 24.7463 5.89959C24.5886 5.82888 24.418 5.79235 24.2455 5.79235C24.0731 5.79235 23.9025 5.82888 23.7448 5.89959C23.587 5.97029 23.4456 6.07363 23.3295 6.20297C23.2134 6.33231 23.1253 6.4848 23.0707 6.65068C23.0162 6.81656 22.9964 6.99216 23.0126 7.16625C22.9964 7.34033 23.0162 7.51593 23.0707 7.68181C23.1253 7.84769 23.2134 8.00018 23.3295 8.12952C23.4456 8.25886 23.587 8.3622 23.7448 8.4329C23.9025 8.50361 24.0731 8.54014 24.2455 8.54014C24.418 8.54014 24.5886 8.50361 24.7463 8.4329C24.9041 8.3622 25.0455 8.25886 25.1616 8.12952C25.2776 8.00018 25.3658 7.84769 25.4204 7.68181C25.4749 7.51593 25.4947 7.34033 25.4785 7.16625ZM31.3565 7.16625C31.3565 8.39381 30.3749 9.38886 29.1643 9.38886C27.9536 9.38886 26.9719 8.39381 26.9719 7.16625C26.9719 5.93868 27.9535 4.94363 29.1643 4.94363C30.375 4.94363 31.3565 5.93868 31.3565 7.16625ZM30.3991 7.16625C30.4153 6.99216 30.3955 6.81656 30.3409 6.65068C30.2864 6.4848 30.1982 6.33231 30.0822 6.20297C29.9661 6.07363 29.8247 5.97029 29.6669 5.89959C29.5092 5.82888 29.3386 5.79235 29.1661 5.79235C28.9937 5.79235 28.8231 5.82888 28.6654 5.89959C28.5076 5.97029 28.3662 6.07363 28.2501 6.20297C28.134 6.33231 28.0459 6.4848 27.9913 6.65068C27.9368 6.81656 27.917 6.99216 27.9332 7.16625C27.9169 7.34037 27.9366 7.51604 27.9911 7.68199C28.0456 7.84794 28.1338 8.00051 28.2498 8.12992C28.3659 8.25932 28.5074 8.36272 28.6652 8.43347C28.8229 8.50422 28.9936 8.54076 29.1661 8.54076C29.3386 8.54076 29.5092 8.50422 29.667 8.43347C29.8248 8.36272 29.9662 8.25932 30.0823 8.12992C30.1984 8.00051 30.2865 7.84794 30.341 7.68199C30.3956 7.51604 30.4154 7.34037 30.3991 7.16625ZM36.1548 5.05615V9.09278C36.1548 10.7494 35.1825 11.4316 34.0366 11.4316C33.6165 11.4352 33.2048 11.3125 32.8534 11.079C32.5021 10.8455 32.2268 10.5117 32.0624 10.1198L32.9016 9.74494C32.9886 9.97382 33.1402 10.1716 33.3374 10.3136C33.5347 10.4557 33.7689 10.5356 34.0107 10.5434C34.7501 10.5434 35.2011 10.0824 35.2011 9.22395V8.90161H35.1641C35.0191 9.06565 34.8412 9.19634 34.6422 9.28491C34.4433 9.37348 34.2279 9.41787 34.0107 9.41512C32.7856 9.41512 31.7925 8.4083 31.7925 7.16625C31.7925 5.92419 32.7856 4.91737 34.0107 4.91737C34.2293 4.91259 34.4465 4.95487 34.6479 5.04144C34.8493 5.12801 35.0303 5.2569 35.1789 5.41959H35.2158V5.04486H36.1548V5.05615ZM35.2935 7.17753C35.3071 7.0079 35.2869 6.83722 35.2342 6.67564C35.1815 6.51406 35.0973 6.36487 34.9866 6.23692C34.8759 6.10897 34.741 6.00487 34.5898 5.9308C34.4387 5.85673 34.2744 5.8142 34.1068 5.80573C33.9358 5.8115 33.7678 5.85175 33.6124 5.92413C33.457 5.99652 33.3174 6.09959 33.2017 6.22731C33.086 6.35504 32.9967 6.50486 32.9388 6.66801C32.8809 6.83116 32.8557 7.00438 32.8646 7.17753C32.8567 7.34952 32.8827 7.52137 32.9412 7.68302C32.9996 7.84467 33.0893 7.99285 33.205 8.11888C33.3207 8.2449 33.4601 8.34623 33.6149 8.41693C33.7698 8.48762 33.937 8.52626 34.1068 8.53056C34.2734 8.52399 34.437 8.48337 34.5878 8.41114C34.7386 8.33891 34.8734 8.23655 34.9843 8.1102C35.0951 7.98386 35.1796 7.83612 35.2327 7.67586C35.2859 7.51559 35.3065 7.34609 35.2935 7.17753ZM37.8665 2.67599V9.27646H36.8905V2.67611L37.8665 2.67599ZM41.7112 7.90846L42.4728 8.41817C42.2694 8.72575 41.9943 8.97767 41.6719 9.15157C41.3494 9.32546 40.9896 9.41595 40.6244 9.415C40.3338 9.41919 40.0455 9.36357 39.7768 9.25152C39.508 9.13947 39.2645 8.9733 39.061 8.76308C38.8574 8.55286 38.698 8.30295 38.5925 8.02848C38.4869 7.75401 38.4374 7.46068 38.4469 7.16625C38.3573 6.11832 39.0575 5.16902 40.0744 4.95991C41.0911 4.7508 42.1008 5.34854 42.421 6.34918L42.5208 6.60783L39.5634 7.84834C39.6555 8.05835 39.8076 8.23557 39.9999 8.35717C40.1923 8.47876 40.4162 8.53915 40.6428 8.53056C40.8583 8.52716 41.0694 8.46827 41.2563 8.35943C41.4432 8.25058 41.5997 8.09536 41.7112 7.90834M39.3786 7.09864L41.3675 6.2666C41.2905 6.1138 41.171 5.98725 41.0238 5.90263C40.8766 5.81801 40.7081 5.77903 40.5393 5.79052C40.3779 5.79771 40.2195 5.83742 40.0734 5.90734C39.9273 5.97727 39.7964 6.076 39.6883 6.19777C39.5803 6.31955 39.4972 6.46193 39.444 6.61661C39.3909 6.77128 39.3686 6.93515 39.3786 7.09864Z" fill="#5F6368"/>
<path d="M5.00594 5.72708L0.0449219 10.9969C0.100619 11.197 0.200724 11.3817 0.337584 11.5366C0.474445 11.6916 0.644437 11.8127 0.834566 11.8909C1.02469 11.969 1.22993 12.002 1.43457 11.9874C1.63922 11.9728 1.83786 11.9109 2.01531 11.8066L7.59754 8.5832L5.00594 5.72708Z" fill="#EA4335"/>
<path d="M10.0219 4.83125L7.60785 3.4295L4.89062 5.84709L7.61887 8.5756L10.0145 7.18883C10.2268 7.07617 10.4045 6.90677 10.5286 6.69897C10.6526 6.49118 10.7182 6.25293 10.7182 6.01004C10.7182 5.76715 10.6526 5.5289 10.5286 5.3211C10.4045 5.11331 10.2268 4.9439 10.0145 4.83125H10.0219Z" fill="#FBBC04"/>
<path d="M0.0444227 0.996948C0.0145263 1.1094 -0.000410685 1.2254 8.58656e-06 1.34186V10.6521C0.000360149 10.7685 0.015243 10.8844 0.0444227 10.9969L5.17559 5.86218L0.0444227 0.996948Z" fill="#4285F4"/>
<path d="M5.04297 5.99691L7.60856 3.42951L2.03359 0.19129C1.82384 0.066717 1.58528 0.000715128 1.34219 2.52869e-06C1.04869 -0.000570268 0.763059 0.0961835 0.528846 0.275512C0.294633 0.45484 0.124687 0.706904 0.0449219 0.99327L5.04297 5.99691Z" fill="#34A853"/>
</g>
<defs>
<clipPath id="clip0_1565_897">
<rect width="60" height="12" fill="white"/>
</clipPath>
</defs>
</svg>
