<svg width="21" height="20" viewBox="0 0 21 20" fill="none" xmlns="http://www.w3.org/2000/svg">
<g clip-path="url(#clip0_3002_1968)">
<path d="M13.573 0H7.438C1.832 0 0.5 1.333 0.5 6.927V13.063C0.5 18.667 1.823 20 7.427 20H13.563C19.167 20 20.5 18.677 20.5 13.073V6.938C20.5 1.332 19.177 0 13.573 0ZM16.646 14.27H15.187C14.635 14.27 14.469 13.823 13.479 12.833C12.615 12 12.25 11.896 12.031 11.896C11.729 11.896 11.646 11.979 11.646 12.396V13.708C11.646 14.063 11.531 14.271 10.604 14.271C9.7045 14.2099 8.83233 13.9363 8.0591 13.4727C7.28588 13.0091 6.63366 12.3686 6.156 11.604C5.02235 10.1945 4.23403 8.53944 3.854 6.771C3.854 6.552 3.937 6.354 4.354 6.354H5.813C6.188 6.354 6.323 6.521 6.469 6.906C7.177 8.99 8.385 10.802 8.875 10.802C9.063 10.802 9.145 10.719 9.145 10.25V8.104C9.083 7.125 8.563 7.042 8.563 6.688C8.56968 6.59463 8.61247 6.50753 8.68229 6.44518C8.75211 6.38283 8.84347 6.35012 8.937 6.354H11.229C11.542 6.354 11.646 6.51 11.646 6.885V9.781C11.646 10.094 11.781 10.198 11.875 10.198C12.063 10.198 12.208 10.094 12.552 9.75C13.2909 8.84894 13.8945 7.84507 14.344 6.77C14.3902 6.64105 14.4772 6.53068 14.5918 6.45562C14.7064 6.38055 14.8423 6.34488 14.979 6.354H16.438C16.875 6.354 16.968 6.573 16.875 6.885C16.3445 8.07345 15.6881 9.20157 14.917 10.25C14.76 10.49 14.697 10.615 14.917 10.896C15.062 11.115 15.573 11.542 15.917 11.948C16.4167 12.4468 16.8318 13.0237 17.146 13.656C17.271 14.062 17.062 14.27 16.646 14.27Z" fill="#0077FF"/>
</g>
<defs>
<clipPath id="clip0_3002_1968">
<rect width="20" height="20" fill="white" transform="translate(0.5)"/>
</clipPath>
</defs>
</svg>
