<svg width="21" height="20" viewBox="0 0 21 20" fill="none" xmlns="http://www.w3.org/2000/svg">
<g clip-path="url(#clip0_3002_1972)">
<path d="M20.0583 5.21095C19.9436 4.7889 19.7198 4.40412 19.4093 4.09494C19.0987 3.78576 18.7122 3.56297 18.2883 3.44874C16.7363 3.02734 10.4899 3.02734 10.4899 3.02734C10.4899 3.02734 4.24314 3.0401 2.69111 3.4615C2.26716 3.57573 1.88067 3.79854 1.57013 4.10773C1.25958 4.41693 1.03581 4.80172 0.921109 5.22379C0.451656 7.96919 0.269546 12.1525 0.933999 14.7881C1.04872 15.2102 1.27249 15.595 1.58303 15.9041C1.89358 16.2133 2.28006 16.4361 2.704 16.5503C4.25603 16.9717 10.5026 16.9717 10.5026 16.9717C10.5026 16.9717 16.7491 16.9717 18.301 16.5503C18.725 16.4361 19.1115 16.2133 19.422 15.9042C19.7326 15.595 19.9564 15.2102 20.0711 14.7881C20.5663 12.0388 20.7188 7.85804 20.0583 5.21095Z" fill="#FF0000"/>
<path d="M8.50195 12.9874L13.6838 9.9993L8.50195 7.01123V12.9874Z" fill="white"/>
</g>
<defs>
<clipPath id="clip0_3002_1972">
<rect width="20" height="19.9444" fill="white" transform="translate(0.5 0.0273438)"/>
</clipPath>
</defs>
</svg>
